# AST/ASF file generated using VICON BodyLanguage
# -----------------------------------------------
:version 1.10
:name VICON
:units
  mass 1.0
  length 0.45
  angle deg
:documentation
   .ast/.asf automatically generated from VICON data using
   VICON BodyBuilder and BodyLanguage model FoxedUp or BRILLIANT.MOD
:root
   order TX TY TZ RX RY RZ
   axis XYZ
   position 0 0 0  
   orientation 0 0 0 
:bonedata
  begin
     id 1 
     name lhipjoint
     direction 0.561001 -0.76473 0.316963 
     length 2.4722 
     axis 0 0 0  XYZ
  end
  begin
     id 2 
     name lfemur
     direction 0.34202 -0.939693 0  
     length 7.59403  
     axis 0 0 20  XYZ
    dof rx ry rz
    limits (-160.0 20.0)
           (-70.0 70.0)
           (-60.0 70.0)
  end
  begin
     id 3 
     name ltibia
     direction 0.34202 -0.939693 0   
     length 7.89655   
     axis 0 0 20   XYZ
    dof rx
    limits (-10.0 170.0)
  end
  begin
     id 4 
     name lfoot
     direction 0.061296 -0.168409 0.98381   
     length 2.73287   
     axis -90 7.62852e-016 20   XYZ
    dof rx rz
    limits (-45.0 90.0)
           (-70.0 20.0)
  end
  begin
     id 5 
     name ltoes
     direction 1.53547e-011 -4.21984e-011 1   
     length 1.37057   
     axis -90 7.62852e-016 20   XYZ
    dof rx
    limits (-90.0 20.0)
  end
  begin
     id 6 
     name rhipjoint
     direction -0.559611 -0.765599 0.317323   
     length 2.46939  
     axis 0 0 0  XYZ 
  end
  begin
     id 7 
     name rfemur
     direction -0.34202 -0.939693 0   
     length 7.53712   
     axis 0 0 -20   XYZ
    dof rx ry rz
    limits (-160.0 20.0)
           (-70.0 70.0)
           (-70.0 60.0)
  end
  begin
     id 8 
     name rtibia
     direction -0.34202 -0.939693 0   
     length 8.12549   
     axis 0 0 -20   XYZ
    dof rx
    limits (-10.0 170.0)
 end
 begin
     id 9 
     name rfoot
     direction -0.066984 -0.184037 0.980634   
     length 2.67541  
     axis -90 -7.62852e-016 -20   XYZ
    dof rx rz
    limits (-45.0 90.0)
           (-20.0 70.0)
  end
  begin
     id 10 
     name rtoes
     direction -1.53549e-011 -4.21786e-011 1   
     length 1.34085   
     axis -90 -7.62852e-016 -20   XYZ
    dof rx
    limits (-90.0 20.0)
  end
  begin
     id 11 
     name lowerback
     direction -0.0522728 0.992594 -0.109658   
     length 2.05633   
     axis 0 0 0   XYZ
    dof rx ry rz
    limits (-20.0 45.0)
           (-30.0 30.0)
           (-30.0 30.0)
  end
  begin
     id 12 
     name upperback
     direction 0.00589338 0.999977 0.00335704   
     length 2.05845   
     axis 0 0 0   XYZ
    dof rx ry rz
    limits (-20.0 45.0)
           (-30.0 30.0)
           (-30.0 30.0)
  end
  begin
     id 13 
     name thorax
     direction 0.0292928 0.998059 0.0549487   
     length 2.09281   
     axis 0 0 0   XYZ
    dof rx ry rz
    limits (-20.0 45.0)
           (-30.0 30.0)
           (-30.0 30.0)
  end
  begin
     id 14 
     name lowerneck
     direction 0.0356368 0.980775 0.191858   
     length 1.84767   
     axis 0 0 0   XYZ
    dof rx ry rz
    limits (-20.0 45.0)
           (-30.0 30.0)
           (-30.0 30.0)
  end
  begin
     id 15 
     name upperneck
     direction -0.0227605 0.98931 -0.14404   
     length 1.89582   
     axis 0 0 0   XYZ
    dof rx ry rz
    limits (-20.0 45.0)
           (-30.0 30.0)
           (-30.0 30.0)
  end
  begin
     id 16
     name head
     direction -0.00932985 0.997511 -0.0698904  
     length 1.90213  
     axis 0 0 0   XYZ
    dof rx ry rz
    limits (-20.0 45.0)
           (-30.0 30.0)
           (-30.0 30.0)
  end
  begin
     id 17 
     name lclavicle
     direction 0.873442 0.479511 0.0846686  
     length 3.41193  
     axis 0 0 0   XYZ
    dof ry rz
    limits (-20.0 10.0)
           (0.0 20.0)
  end
  begin
     id 18 
     name lhumerus
     direction 1 -4.4897e-011 -5.62117e-018   
     length 5.59864   
     axis 180 -30 -90   XYZ
    dof rx ry rz
    limits (-60.0 90.0)
           (-90.0 90.0)
           (-90.0 90.0)
  end
  begin
     id 19
     name lradius
     direction 1 -4.48966e-011 -6.26295e-027   
     length 3.59542   
     axis 180 -30 -90   XYZ
    dof rx
    limits (-10.0 170.0)
  end
  begin
     id 20
     name lwrist
     direction 1 -4.48947e-011 -1.74096e-026   
     length 1.79771   
     axis 1.04567e-014 90 90   XYZ
    dof ry
    limits (-180.0 0.0)
 end
  begin
     id 21 
     name lhand
     direction 1 -4.49085e-011 -3.48469e-026   
     length 0.572014   
     axis 2.22196e-014 90 90   XYZ
    dof rx rz
    limits (-90.0 90.0)
           (-45.0 45.0)
  end
  begin
     id 22 
     name lfingers
     direction 1 -4.48884e-011 -6.96135e-026   
     length 0.461173   
     axis 4.44383e-014 90 90   XYZ
    dof rx
    limits (0.0 90.0)
  end
  begin
     id 23
     name lthumb
     direction 0.707107 -6.34976e-011 0.707107   
     length 0.662154   
     axis -90 45 -5.4397e-014   XYZ
    dof rx rz
    limits (-45.0 45.0)
           (-45.0 45.0)
  end
  begin
     id 24 
     name rclavicle
     direction -0.890242 0.443271 0.104786   
     length 3.46753  
     axis 0 0 0   XYZ 
    dof ry rz
    limits (-10.0 20.0)
           (-20.0 0.0)
  end
  begin
     id 25 
     name rhumerus
     direction -1 -4.48963e-011 -5.41723e-018  
     length 5.8094   
     axis 180 30 90   XYZ
    dof rx ry rz
    limits (-90.0 60.0)
           (-90.0 90.0)
           (-90.0 90.0)
  end
  begin
     id 26 
     name rradius
     direction -1 -4.48958e-011 -6.51059e-027   
     length 3.66953   
     axis 180 30 90   XYZ
    dof rx
    limits (-10.0 170.0)
  end
  begin
     id 27 
     name rwrist
     direction -1 -4.48975e-011 -1.74124e-026   
     length 1.83476   
     axis 1.04567e-014 -90 -90   XYZ
    dof ry
    limits (-180.0 0.0)
  end
  begin
     id 28
     name rhand
     direction -1 -4.49013e-011 -3.48326e-026   
     length 0.57843   
     axis 2.22196e-014 -90 -90   XYZ
    dof rx rz
    limits (-90.0 90.0)
           (-45.0 45.0)
  end
  begin
     id 29
     name rfingers
     direction -1 -4.49023e-011 -6.9669e-026   
     length 0.466345   
     axis 4.44383e-014 -90 -90   XYZ
    dof rx
    limits (0.0 90.0)
  end
  begin
     id 30
     name rthumb
     direction -0.707107 -6.34926e-011 0.707107   
     length 0.669581   
     axis -90 -45 5.4397e-014   XYZ
    dof rx rz
    limits (-45.0 45.0)
           (-45.0 45.0)
  end
:hierarchy
  begin
    root lhipjoint rhipjoint lowerback
    lhipjoint lfemur
    lfemur ltibia
    ltibia lfoot
    lfoot ltoes
    rhipjoint rfemur
    rfemur rtibia
    rtibia rfoot
    rfoot rtoes
    lowerback upperback
    upperback thorax
    thorax lowerneck lclavicle rclavicle
    lowerneck upperneck
    upperneck head
    lclavicle lhumerus
    lhumerus lradius
    lradius lwrist
    lwrist lhand lthumb
    lhand lfingers
    rclavicle rhumerus
    rhumerus rradius
    rradius rwrist
    rwrist rhand rthumb
    rhand rfingers
  end

#!OML:ASF H:\SkateBoarding\Project 1\Capture day 1\Session 1\Skater.ASF
:FULLY-SPECIFIED
:DEGREES
32
root -14.2742 19.6147 -21.4794 3.87175 51.6441 -0.045687
lowerback 9.92425 -0.995582 -2.6596
upperback -0.751567 -1.58403 0.906093
thorax -6.26643 -0.670385 2.68908
lowerneck -18.3603 -5.22264 -3.64015
upperneck 37.8391 -6.80776 1.9317
head 17.0848 -2.82574 0.227362
rclavicle -1.16454e-013 1.2424e-014
rhumerus -31.4123 2.05815 -84.7807
rradius 36.1545
rwrist -6.23496
rhand -35.6838 -1.862
rfingers 7.12502
rthumb -8.8047 -31.6583
lclavicle -1.16454e-013 1.2424e-014
lhumerus -49.9338 -16.7294 91.3198
lradius 54.5721
lwrist 35.2084
lhand -26.4463 21.1845
lfingers 7.12502
lthumb 0.114726 51.1642
rfemur -20.4028 -0.892285 20.0126
rtibia 41.5536
rfoot -34.1482 4.07481
rtoes -11.0864
lfemur -13.4107 -5.68093 -15.9831
ltibia 55.788
lfoot -31.1732 4.99592
ltoes -9.62952
33
root -14.2516 19.6569 -21.1824 3.72992 51.5724 0.00303918
lowerback 10.3404 -0.953094 -2.66425
upperback -0.706812 -1.53679 0.914528
thorax -6.45778 -0.643037 2.70449
lowerneck -18.3217 -5.25952 -3.58841
upperneck 37.7294 -6.82991 1.79959
head 17.0063 -2.85024 0.15628
rclavicle -2.57178e-015 6.4605e-016
rhumerus -31.2851 2.39497 -84.7782
rradius 36.5697
rwrist -6.69061
rhand -35.4667 -2.12113
rfingers 7.12502
rthumb -8.59517 -31.9262
lclavicle -2.57178e-015 6.4605e-016
lhumerus -50.0029 -16.2669 90.8402
lradius 54.5839
lwrist 35.0359
lhand -26.6585 20.8866
lfingers 7.12502
lthumb -0.0902306 50.8663
rfemur -19.8838 -0.504409 19.9477
rtibia 41.0558
rfoot -34.1122 4.02164
rtoes -10.6525
lfemur -14.8007 -6.8716 -15.6475
ltibia 57.7783
lfoot -27.3849 6.86525
ltoes -12.3639
34
root -14.229 19.6821 -20.89 3.69921 51.4444 0.0573991
lowerback 10.6678 -0.831272 -2.60036
upperback -0.699171 -1.37772 0.861421
thorax -6.64849 -0.564264 2.59627
lowerneck -18.2801 -5.37901 -3.56574
upperneck 37.6409 -7.02755 1.81591
head 16.9558 -2.92736 0.121642
rclavicle -6.55741e-014 6.4605e-016
rhumerus -31.2441 2.5294 -84.7578
rradius 37.0707
rwrist -7.37861
rhand -35.6833 -2.18216
rfingers 7.12502
rthumb -8.80424 -31.9785
lclavicle -6.55741e-014 6.4605e-016
lhumerus -50.0524 -16.0705 90.3931
lradius 54.5281
lwrist 34.8787
lhand -26.7333 20.4226
lfingers 7.12502
lthumb -0.16246 50.4022
rfemur -19.6442 -0.0544433 19.8416
rtibia 40.8108
rfoot -34.2006 3.94363
rtoes -10.1125
lfemur -16.0621 -8.13604 -15.2796
ltibia 59.3161
lfoot -23.5062 8.88939
ltoes -16.6796
35
root -14.21 19.6831 -20.6013 3.85394 51.3435 0.165286
lowerback 10.3388 -0.834977 -2.47556
upperback -0.411304 -1.3626 0.73618
thorax -6.16335 -0.574905 2.37816
lowerneck -18.3589 -5.39392 -3.53389
upperneck 37.3477 -7.1174 1.95883
head 16.8294 -2.94695 0.159818
rclavicle 1.44616e-014 -1.13804e-014
rhumerus -30.7665 2.69655 -84.9093
rradius 37.6529
rwrist -7.75446
rhand -35.9694 -2.35607
rfingers 7.12502
rthumb -9.08029 -32.1406
lclavicle 1.44616e-014 -1.13804e-014
lhumerus -49.5041 -15.7114 89.649
lradius 54.3588
lwrist 34.6225
lhand -26.9911 20.4568
lfingers 7.12502
lthumb -0.41152 50.4361
rfemur -19.787 0.348361 19.7093
rtibia 40.9358
rfoot -34.2615 3.81718
rtoes -9.949
lfemur -17.1772 -9.54086 -14.8223
ltibia 60.3467
lfoot -21.2729 6.73276
ltoes -17.4298
36
root -14.1911 19.6655 -20.3185 4.05386 51.2336 0.337868
lowerback 10.6139 -0.84074 -2.4051
upperback -0.453697 -1.37462 0.639931
thorax -6.36712 -0.580509 2.24652
lowerneck -18.4117 -5.41137 -3.50237
upperneck 37.3122 -7.17655 2.00658
head 16.8272 -2.96071 0.162006
rclavicle 6.94349e-015 -2.49723e-015
rhumerus -30.7166 3.00467 -85.0215
rradius 38.1495
rwrist -8.05298
rhand -36.0961 -2.29435
rfingers 7.12502
rthumb -9.20253 -32.0735
lclavicle 6.94349e-015 -2.49723e-015
lhumerus -49.4185 -15.2713 89.0999
lradius 54.1786
lwrist 34.4054
lhand -26.9558 19.9501
lfingers 7.12502
lthumb -0.377443 49.9296
rfemur -20.1624 0.265594 19.5053
rtibia 41.4099
rfoot -33.999 4.12147
rtoes -9.67863
lfemur -18.1079 -10.9841 -14.4022
ltibia 60.9541
lfoot -19.9124 3.92815
ltoes -17.179
37
root -14.1722 19.6416 -20.0317 4.17736 51.0726 0.550573
lowerback 10.8596 -0.791253 -2.79529
upperback -0.352874 -1.34931 0.84248
thorax -6.38742 -0.551886 2.68061
lowerneck -18.5783 -5.45386 -3.71021
upperneck 37.2041 -7.12265 1.9108
head 16.8153 -2.98432 0.160968
rclavicle 3.09731e-014 1.44616e-014
rhumerus -30.4194 3.60067 -84.7036
rradius 38.6884
rwrist -8.64064
rhand -36.2774 -2.37694
rfingers 7.12502
rthumb -9.37747 -32.1483
lclavicle 3.09731e-014 1.44616e-014
lhumerus -49.1401 -14.5397 88.9275
lradius 53.9899
lwrist 34.0732
lhand -27.1139 19.8541
lfingers 7.12502
lthumb -0.530102 49.8332
rfemur -20.4975 0.366802 19.2869
rtibia 42.0687
rfoot -33.8059 4.64974
rtoes -9.0331
lfemur -18.7694 -12.3222 -13.9735
ltibia 61.1433
lfoot -18.4684 0.696779
ltoes -15.3384
38
root -14.1421 19.6172 -19.756 4.64747 50.9466 0.974034
lowerback 10.9696 -0.804316 -2.90115
upperback -0.341024 -1.38458 0.818856
thorax -6.43302 -0.56514 2.72374
lowerneck -18.4677 -5.50572 -3.86035
upperneck 36.8908 -7.15972 1.94536
head 16.6354 -3.02666 0.19848
rclavicle 1.07592e-013 -1.88845e-015
rhumerus -30.2438 4.03857 -84.6064
rradius 39.2669
rwrist -9.04274
rhand -36.7316 -2.38721
rfingers 7.12502
rthumb -9.81568 -32.1384
lclavicle 1.07592e-013 -1.88845e-015
lhumerus -48.8274 -13.9164 88.5902
lradius 53.7324
lwrist 33.8534
lhand -27.2412 19.9764
lfingers 7.12502
lthumb -0.653065 49.9551
rfemur -21.1191 0.253413 18.8141
rtibia 42.7997
rfoot -33.3533 5.08675
rtoes -8.13606
lfemur -19.6364 -13.8376 -13.748
ltibia 61.0378
lfoot -16.9703 -1.3367
ltoes -14.6001
39
root -14.1065 19.5959 -19.4715 4.86503 50.5049 1.35946
lowerback 11.193 -0.651166 -2.91583
upperback -0.263743 -1.20141 0.60695
thorax -6.49373 -0.477752 2.48297
lowerneck -18.53 -5.53764 -3.7187
upperneck 36.7984 -7.28772 2.01306
head 16.6036 -3.05119 0.176878
rclavicle -6.48659e-014 -1.78906e-015
rhumerus -30.1652 3.98257 -84.6607
rradius 39.8394
rwrist -9.32125
rhand -36.8009 -2.48502
rfingers 7.12502
rthumb -9.88259 -32.2331
lclavicle -6.48659e-014 -1.78906e-015
lhumerus -48.5305 -13.7846 88.1474
lradius 53.4493
lwrist 33.8328
lhand -27.1928 19.6377
lfingers 7.12502
lthumb -0.606288 49.6166
rfemur -21.4555 0.318504 18.3733
rtibia 43.4915
rfoot -32.8602 5.58161
rtoes -7.58611
lfemur -20.0536 -14.9154 -13.5439
ltibia 60.588
lfoot -15.394 -3.08336
ltoes -13.9144
40
root -14.0782 19.5703 -19.1924 5.14314 50.3179 1.75369
lowerback 11.559 -0.688727 -2.77101
upperback -0.232714 -1.25743 0.369691
thorax -6.67223 -0.510463 2.16771
lowerneck -18.5853 -5.50357 -3.67413
upperneck 36.6209 -7.32443 2.19281
head 16.5347 -3.03929 0.239169
rclavicle -1.36851e-014 5.46658e-016
rhumerus -30.0823 4.10888 -84.8579
rradius 40.4261
rwrist -9.46278
rhand -37.1435 -2.40519
rfingers 7.12502
rthumb -10.213 -32.1373
lclavicle -1.36851e-014 5.46658e-016
lhumerus -48.2642 -13.4506 87.5849
lradius 53.1654
lwrist 33.6298
lhand -26.8855 18.9018
lfingers 7.12502
lthumb -0.309457 48.8813
rfemur -21.8553 0.337774 17.8799
rtibia 44.1521
rfoot -32.8332 5.96763
rtoes -7.76022
lfemur -20.5993 -16.137 -13.2887
ltibia 59.8222
lfoot -13.8811 -4.20995
ltoes -13.8163
41
root -14.0541 19.5409 -18.9164 5.64005 50.2777 2.18983
lowerback 11.6559 -0.617172 -3.00209
upperback -0.181809 -1.19585 0.361397
thorax -6.67218 -0.472917 2.28041
lowerneck -18.5996 -5.60016 -3.64815
upperneck 36.3409 -7.45175 2.13019
head 16.3936 -3.10484 0.182487
rclavicle 5.2827e-014 -7.7526e-015
rhumerus -29.8715 4.08869 -84.6076
rradius 40.9484
rwrist -9.71304
rhand -37.323 -2.60389
rfingers 7.12502
rthumb -10.3863 -32.3274
lclavicle 5.2827e-014 -7.7526e-015
lhumerus -47.732 -13.2714 87.4883
lradius 52.7336
lwrist 33.4891
lhand -27.0757 19.0574
lfingers 7.12502
lthumb -0.493166 49.0365
rfemur -22.4719 0.49178 17.3227
rtibia 44.8459
rfoot -33.511 4.64076
rtoes -10.9147
lfemur -21.289 -17.4392 -12.9666
ltibia 58.7293
lfoot -12.4605 -5.23944
ltoes -13.443
42
root -14.0262 19.508 -18.6392 5.91537 49.9968 2.56519
lowerback 11.9193 -0.557414 -3.15363
upperback -0.0813058 -1.14526 0.327626
thorax -6.71497 -0.443283 2.32577
lowerneck -18.5989 -5.64499 -3.65822
upperneck 36.0215 -7.50152 2.10072
head 16.2312 -3.14116 0.162527
rclavicle 2.82647e-014 4.17448e-015
rhumerus -29.6507 4.24708 -84.4687
rradius 41.5145
rwrist -10.149
rhand -37.6717 -2.5546
rfingers 7.12502
rthumb -10.7226 -32.261
lclavicle 2.82647e-014 4.17448e-015
lhumerus -47.2565 -12.9384 87.2856
lradius 52.4027
lwrist 33.4968
lhand -27.0125 18.9918
lfingers 7.12502
lthumb -0.432188 48.9711
rfemur -22.9622 0.674992 16.7802
rtibia 45.6176
rfoot -33.3175 5.04718
rtoes -9.90983
lfemur -21.5308 -18.3875 -12.6568
ltibia 57.2631
lfoot -11.4026 -5.75709
ltoes -13.0666
43
root -14.0034 19.4611 -18.3661 6.35909 49.9574 2.99417
lowerback 12.1468 -0.607236 -3.2578
upperback -0.0162002 -1.23504 0.278584
thorax -6.76739 -0.483584 2.35221
lowerneck -18.7669 -5.58066 -3.65187
upperneck 35.8259 -7.39804 2.08992
head 16.1674 -3.10346 0.172478
rclavicle -4.11609e-014 2.98177e-015
rhumerus -29.4036 4.45426 -84.3849
rradius 42.0607
rwrist -10.5412
rhand -37.6756 -2.76351
rfingers 7.12502
rthumb -10.7263 -32.4697
lclavicle -4.11609e-014 2.98177e-015
lhumerus -46.6329 -12.5307 87.0743
lradius 51.936
lwrist 33.4141
lhand -27.0615 18.9679
lfingers 7.12502
lthumb -0.479499 48.9471
rfemur -23.7124 0.593428 16.1798
rtibia 46.5695
rfoot -33.4176 5.38665
rtoes -10.3353
lfemur -21.8491 -19.5012 -12.349
ltibia 55.5446
lfoot -10.4513 -6.43971
ltoes -11.0476
44
root -13.9802 19.4 -18.0911 6.44487 49.5007 3.26335
lowerback 12.5715 -0.475114 -3.2454
upperback 0.105006 -1.08251 0.0793021
thorax -6.89132 -0.41077 2.11408
lowerneck -18.8736 -5.5918 -3.45701
upperneck 35.6256 -7.50284 2.13668
head 16.088 -3.11832 0.136319
rclavicle 8.96643e-014 -1.18277e-014
rhumerus -29.2297 4.19821 -84.4613
rradius 42.5199
rwrist -10.7501
rhand -37.8604 -2.7424
rfingers 7.12502
rthumb -10.9046 -32.4392
lclavicle 8.96643e-014 -1.18277e-014
lhumerus -46.0531 -12.5085 86.6963
lradius 51.5002
lwrist 33.438
lhand -27.3298 19.3908
lfingers 7.12502
lthumb -0.738632 49.3693
rfemur -24.3625 0.892352 15.6984
rtibia 47.7292
rfoot -33.4824 5.98996
rtoes -10.126
lfemur -21.422 -20.2989 -11.9154
ltibia 53.554
lfoot -9.38947 -7.66595
ltoes -4.52609
45
root -13.9557 19.336 -17.8229 6.92033 49.4682 3.57996
lowerback 12.688 -0.501582 -3.21993
upperback 0.118541 -1.12299 0.000120515
thorax -6.94217 -0.431603 2.02515
lowerneck -18.8832 -5.61105 -3.27016
upperneck 35.3603 -7.55651 2.03015
head 15.9427 -3.139 0.0494264
rclavicle 6.48783e-014 -1.19271e-015
rhumerus -29.0358 4.17699 -84.3673
rradius 42.9814
rwrist -11.2697
rhand -38.2389 -2.66544
rfingers 7.12502
rthumb -11.2697 -32.3427
lclavicle 6.48783e-014 -1.19271e-015
lhumerus -45.3991 -12.3415 86.5414
lradius 50.9703
lwrist 33.3763
lhand -27.3364 19.4743
lfingers 7.12502
lthumb -0.744969 49.4528
rfemur -25.4905 0.739613 15.1398
rtibia 49.0575
rfoot -33.5511 6.36167
rtoes -10.3401
lfemur -21.6165 -21.167 -11.5324
ltibia 51.3797
lfoot -8.56735 -7.93945
ltoes -1.67343
46
root -13.9334 19.2462 -17.5465 7.07114 49.0918 3.8201
lowerback 13.0135 -0.418481 -3.50551
upperback 0.217639 -1.05909 0.0650644
thorax -7.01725 -0.38844 2.24845
lowerneck -18.8999 -5.61795 -3.31451
upperneck 35.1196 -7.5293 1.98255
head 15.8261 -3.14839 0.0425628
rclavicle 1.6847e-014 -9.93923e-016
rhumerus -28.8309 4.30918 -84.172
rradius 43.4379
rwrist -11.7475
rhand -38.4539 -2.60184
rfingers 7.12502
rthumb -11.477 -32.2677
lclavicle 1.6847e-014 -9.93923e-016
lhumerus -44.7818 -11.9384 86.4902
lradius 50.4594
lwrist 33.3093
lhand -26.8821 18.7457
lfingers 7.12502
lthumb -0.30626 48.7252
rfemur -26.4783 0.761401 14.6659
rtibia 50.5554
rfoot -33.564 6.71902
rtoes -10.8971
lfemur -21.3552 -21.4969 -11.2554
ltibia 49.0338
lfoot -7.72776 -7.99907
ltoes 0.184503
